<svg width="22" height="29" viewBox="0 0 22 29" fill="none" xmlns="http://www.w3.org/2000/svg">
<path d="M11.048 0.513672C12.8036 0.513672 14.298 1.13034 15.5313 2.36367C16.7647 3.59701 17.3813 5.09145 17.3813 6.84701V10.047H19.7147C20.2702 10.047 20.7425 10.2414 21.1313 10.6303C21.5202 11.0192 21.7147 11.4914 21.7147 12.047V26.5137C21.7147 27.0692 21.5202 27.5415 21.1313 27.9303C20.7425 28.3192 20.2702 28.5137 19.7147 28.5137H2.38135C1.82579 28.5137 1.35357 28.3192 0.964681 27.9303C0.575792 27.5415 0.381348 27.0692 0.381348 26.5137V12.047C0.381348 11.4914 0.575792 11.0192 0.964681 10.6303C1.35357 10.2414 1.82579 10.047 2.38135 10.047H4.71468V6.84701C4.71468 5.09145 5.33135 3.59701 6.56468 2.36367C7.79801 1.13034 9.29246 0.513672 11.048 0.513672ZM11.048 2.51367C9.84801 2.51367 8.82579 2.93589 7.98135 3.78034C7.1369 4.62478 6.71468 5.64701 6.71468 6.84701V10.047H15.3813V6.84701C15.3813 5.64701 14.9591 4.62478 14.1147 3.78034C13.2702 2.93589 12.248 2.51367 11.048 2.51367ZM11.048 16.7137C10.3369 16.7137 9.73135 16.9859 9.23135 17.5303C8.73135 18.0748 8.48135 18.6803 8.48135 19.347C8.48135 20.0359 8.73135 20.6248 9.23135 21.1137C9.73135 21.6026 10.3369 21.847 11.048 21.847C11.7591 21.847 12.3647 21.6026 12.8647 21.1137C13.3647 20.6248 13.6147 20.0359 13.6147 19.347C13.6147 18.6803 13.3647 18.0748 12.8647 17.5303C12.3647 16.9859 11.7591 16.7137 11.048 16.7137Z" fill="#C9D3DB"/>
</svg>
