<svg width="28" height="28" viewBox="0 0 28 28" fill="none" xmlns="http://www.w3.org/2000/svg">
<path d="M5.44769 21.6805C6.84769 20.7916 8.23102 20.1194 9.59769 19.6638C10.9644 19.2083 12.4477 18.9805 14.0477 18.9805C15.6477 18.9805 17.1366 19.2083 18.5144 19.6638C19.8921 20.1194 21.281 20.7916 22.681 21.6805C23.6588 20.4805 24.3532 19.2694 24.7644 18.0472C25.1755 16.8249 25.381 15.5361 25.381 14.1805C25.381 10.9583 24.2977 8.26383 22.131 6.09717C19.9644 3.9305 17.2699 2.84717 14.0477 2.84717C10.8255 2.84717 8.13102 3.9305 5.96435 6.09717C3.79769 8.26383 2.71436 10.9583 2.71436 14.1805C2.71436 15.5361 2.92547 16.8249 3.34769 18.0472C3.76991 19.2694 4.46991 20.4805 5.44769 21.6805ZM14.0477 15.1805C12.7588 15.1805 11.6755 14.7416 10.7977 13.8638C9.91991 12.9861 9.48102 11.9027 9.48102 10.6138C9.48102 9.32495 9.91991 8.24161 10.7977 7.36383C11.6755 6.48606 12.7588 6.04717 14.0477 6.04717C15.3366 6.04717 16.4199 6.48606 17.2977 7.36383C18.1755 8.24161 18.6144 9.32495 18.6144 10.6138C18.6144 11.9027 18.1755 12.9861 17.2977 13.8638C16.4199 14.7416 15.3366 15.1805 14.0477 15.1805ZM14.0477 27.5138C12.181 27.5138 10.4366 27.1638 8.81435 26.4638C7.19213 25.7638 5.78102 24.8083 4.58102 23.5972C3.38102 22.3861 2.43658 20.9694 1.74769 19.3472C1.0588 17.7249 0.714355 15.9916 0.714355 14.1472C0.714355 12.3249 1.06436 10.6027 1.76436 8.9805C2.46436 7.35828 3.41991 5.94717 4.63102 4.74717C5.84213 3.54717 7.2588 2.59717 8.88102 1.89717C10.5032 1.19717 12.2366 0.847168 14.081 0.847168C15.9032 0.847168 17.6255 1.19717 19.2477 1.89717C20.8699 2.59717 22.281 3.54717 23.481 4.74717C24.681 5.94717 25.631 7.35828 26.331 8.9805C27.031 10.6027 27.381 12.3361 27.381 14.1805C27.381 16.0027 27.031 17.7249 26.331 19.3472C25.631 20.9694 24.681 22.3861 23.481 23.5972C22.281 24.8083 20.8699 25.7638 19.2477 26.4638C17.6255 27.1638 15.8921 27.5138 14.0477 27.5138Z" fill="#C9D3DB"/>
</svg>
