<svg width="16" height="28" viewBox="0 0 16 28" fill="none" xmlns="http://www.w3.org/2000/svg">
<path d="M0.919548 12.58L12.2395 1.28001C12.4255 1.09256 12.6467 0.943767 12.8904 0.84223C13.1341 0.740692 13.3955 0.688416 13.6595 0.688416C13.9236 0.688416 14.185 0.740692 14.4287 0.84223C14.6724 0.943767 14.8936 1.09256 15.0795 1.28001C15.452 1.65474 15.6611 2.16164 15.6611 2.69001C15.6611 3.21838 15.452 3.72529 15.0795 4.10001L5.17955 14.1L15.0795 24C15.452 24.3747 15.6611 24.8816 15.6611 25.41C15.6611 25.9384 15.452 26.4453 15.0795 26.82C14.8943 27.009 14.6734 27.1593 14.4297 27.2623C14.1859 27.3653 13.9242 27.4189 13.6595 27.42C13.3949 27.4189 13.1332 27.3653 12.8894 27.2623C12.6457 27.1593 12.4248 27.009 12.2395 26.82L0.919548 15.52C0.716538 15.3327 0.554521 15.1054 0.443707 14.8524C0.332892 14.5994 0.275682 14.3262 0.275682 14.05C0.275682 13.7738 0.332892 13.5006 0.443707 13.2476C0.554521 12.9946 0.716538 12.7673 0.919548 12.58V12.58Z" fill="#827474" fill-opacity="0.49"/>
</svg>
