<svg width="16" height="28" viewBox="0 0 16 28" fill="none" xmlns="http://www.w3.org/2000/svg">
<path d="M15.0805 12.58L3.76045 1.28001C3.57453 1.09256 3.35332 0.943767 3.10961 0.84223C2.86589 0.740692 2.60448 0.688416 2.34045 0.688416C2.07643 0.688416 1.81502 0.740692 1.5713 0.84223C1.32758 0.943767 1.10638 1.09256 0.920452 1.28001C0.54795 1.65474 0.338867 2.16164 0.338867 2.69001C0.338867 3.21838 0.54795 3.72529 0.920452 4.10001L10.8205 14.1L0.920452 24C0.54795 24.3747 0.338867 24.8816 0.338867 25.41C0.338867 25.9384 0.54795 26.4453 0.920452 26.82C1.10568 27.009 1.32657 27.1593 1.57032 27.2623C1.81407 27.3653 2.07584 27.4189 2.34045 27.42C2.60507 27.4189 2.86683 27.3653 3.11058 27.2623C3.35433 27.1593 3.57522 27.009 3.76045 26.82L15.0805 15.52C15.2835 15.3327 15.4455 15.1054 15.5563 14.8524C15.6671 14.5994 15.7243 14.3262 15.7243 14.05C15.7243 13.7738 15.6671 13.5006 15.5563 13.2476C15.4455 12.9946 15.2835 12.7673 15.0805 12.58V12.58Z" fill="#827474" fill-opacity="0.49"/>
</svg>
